<svg width="31" height="31" viewBox="0 0 31 31" fill="none" xmlns="http://www.w3.org/2000/svg">
<path d="M23.0094 16.5689C23.6269 16.176 23.6269 15.2745 23.0094 14.8816L1.94703 1.47826C1.28131 1.05461 0.410156 1.53283 0.410156 2.32192V29.1286C0.410156 29.9177 1.28131 30.3959 1.94703 29.9722L23.0094 16.5689Z" fill="#4C51DF"/>
<path d="M23.0094 16.5689C23.6269 16.176 23.6269 15.2745 23.0094 14.8816L1.94703 1.47826C1.28131 1.05461 0.410156 1.53283 0.410156 2.32192V29.1286C0.410156 29.9177 1.28131 30.3959 1.94703 29.9722L23.0094 16.5689Z" fill="#4C51DF"/>
<rect x="26.5107" y="0.5" width="4.35" height="30.45" rx="1" fill="#4C51DF"/>
<rect x="26.5107" y="0.5" width="4.35" height="30.45" rx="1" fill="#4C51DF"/>
</svg>
