<svg width="32" height="31" viewBox="0 0 32 31" fill="none" xmlns="http://www.w3.org/2000/svg">
<path d="M8.80993 16.5689C8.19243 16.176 8.19243 15.2745 8.80993 14.8816L29.8723 1.47826C30.538 1.05461 31.4092 1.53283 31.4092 2.32192V29.1286C31.4092 29.9177 30.538 30.3959 29.8723 29.9722L8.80993 16.5689Z" fill="#4C51DF"/>
<path d="M8.80993 16.5689C8.19243 16.176 8.19243 15.2745 8.80993 14.8816L29.8723 1.47826C30.538 1.05461 31.4092 1.53283 31.4092 2.32192V29.1286C31.4092 29.9177 30.538 30.3959 29.8723 29.9722L8.80993 16.5689Z" fill="#4C51DF"/>
<rect width="4.35" height="30.45" rx="1" transform="matrix(-1 0 0 1 5.30859 0.5)" fill="#4C51DF"/>
<rect width="4.35" height="30.45" rx="1" transform="matrix(-1 0 0 1 5.30859 0.5)" fill="#4C51DF"/>
</svg>
